<!-- <svg width="20" height="15" viewBox="0 0 20 15" fill="none" xmlns="http://www.w3.org/2000/svg">
<mask id="mask0" mask-type="alpha" maskUnits="userSpaceOnUse" x="0" y="0" width="20" height="15">
<rect width="20" height="15" fill="white"/>
</mask>
<g mask="url(#mask0)">
<path fill-rule="evenodd" clip-rule="evenodd" d="M0 0V15H20V0H0Z" fill="#E31D1C"/>
<mask id="mask1" mask-type="alpha" maskUnits="userSpaceOnUse" x="0" y="0" width="20" height="15">
<path fill-rule="evenodd" clip-rule="evenodd" d="M0 0V15H20V0H0Z" fill="white"/>
</mask>
<g mask="url(#mask1)">
<path fill-rule="evenodd" clip-rule="evenodd" d="M10.0159 10.0709C8.67757 9.7412 7.62937 8.621 7.64153 6.97891C7.65292 5.44178 8.58358 4.1425 10.0548 3.79077C11.526 3.43904 12.8213 4.18567 12.8213 4.18567C12.4147 3.22579 11.0021 2.55145 9.84394 2.55339C7.68818 2.557 5.39013 4.30527 5.37032 6.97891C5.34978 9.75078 7.83119 11.3294 10.0136 11.3257C11.7631 11.3228 12.593 10.1258 12.7649 9.61663C12.7649 9.61663 11.3542 10.4006 10.0159 10.0709ZM13.0646 6.45407L11.7312 6.94386L13.2357 7.47461L13.21 9.06047L14.2014 7.87072L15.8389 7.98971L14.5412 6.87424L15.3932 5.68436L14.006 6.15122L13.0145 5.04898L13.0646 6.45407Z" fill="#F7FCFF"/>
</g>
</g>
</svg> -->
<?xml version="1.0" standalone="no"?>
<!DOCTYPE svg PUBLIC "-//W3C//DTD SVG 20010904//EN" "http://www.w3.org/TR/2001/REC-SVG-20010904/DTD/svg10.dtd">
<svg version="1.0" xmlns="http://www.w3.org/2000/svg" width="1080.000000pt" height="1080.000000pt" viewBox="0 0 1080.000000 1080.000000" preserveAspectRatio="xMidYMid meet">
	<g transform="translate(0.000000,1080.000000) scale(0.100000,-0.100000)" fill="#000000" stroke="none">
		<path d="M0 5400 l0 -5400 5400 0 5400 0 0 5400 0 5400 -5400 0 -5400 0 0
-5400z m4690 3865 c98 -33 145 -62 222 -137 107 -104 189 -250 239 -428 16
-57 32 -134 35 -170 l6 -65 -48 -64 c-82 -108 -205 -190 -228 -153 -3 5 -14
69 -25 143 -59 406 -146 600 -293 654 -66 24 -238 24 -349 0 -41 -9 -93 -21
-116 -26 -68 -14 -256 -102 -313 -147 -132 -103 -221 -210 -274 -326 -49 -108
-59 -164 -54 -307 l4 -124 54 -107 c46 -93 68 -123 159 -219 146 -154 329
-289 511 -375 52 -25 109 -53 125 -61 29 -15 99 -40 341 -121 146 -49 400
-123 504 -147 41 -9 125 -32 185 -50 61 -18 144 -38 185 -45 195 -34 346 -99
435 -188 37 -37 120 -199 136 -267 7 -27 16 -59 22 -69 32 -63 60 -520 46
-751 -12 -202 -32 -324 -84 -530 -27 -104 -107 -290 -164 -380 -75 -118 -242
-289 -387 -396 -66 -49 -216 -119 -255 -119 -48 0 -52 -14 -48 -216 5 -224 -1
-215 128 -207 299 17 889 3 1051 -27 58 -10 142 -24 188 -30 74 -10 242 -60
267 -81 6 -4 37 -18 70 -30 70 -26 126 -65 170 -117 127 -151 150 -359 58
-525 -89 -160 -344 -419 -598 -607 -55 -40 -116 -85 -135 -100 -47 -35 -199
-138 -259 -175 -26 -16 -113 -72 -192 -123 -79 -51 -189 -122 -244 -157 -55
-35 -129 -81 -165 -101 -36 -21 -100 -60 -142 -88 -42 -28 -99 -64 -125 -80
-26 -17 -77 -48 -113 -71 -36 -23 -94 -59 -130 -80 -36 -21 -105 -64 -155 -95
-49 -31 -110 -69 -135 -83 -25 -15 -88 -54 -140 -87 -52 -33 -108 -67 -125
-74 -16 -8 -68 -40 -115 -72 -47 -31 -101 -63 -120 -71 -19 -9 -80 -43 -135
-78 -55 -34 -112 -65 -127 -69 -16 -3 -28 -11 -28 -16 0 -6 -7 -10 -16 -10
-15 0 33 45 86 80 13 8 35 25 50 38 15 12 30 22 33 22 7 0 62 35 147 95 36 25
103 70 150 100 47 30 96 62 109 72 14 10 57 37 95 60 39 23 76 46 81 50 36 30
271 183 280 183 3 0 38 24 78 53 39 30 88 62 107 72 19 10 57 34 84 54 61 45
167 113 226 145 25 13 71 44 102 68 68 51 128 90 213 138 34 19 90 53 125 75
176 114 400 261 435 286 22 16 65 47 96 69 31 22 63 45 70 53 8 7 41 33 74 57
33 25 64 51 68 57 4 7 20 20 35 28 60 32 216 197 239 253 8 20 25 51 38 67 53
71 87 173 88 265 0 53 -31 158 -55 188 -39 46 -257 144 -406 181 -194 50 -507
75 -742 60 -463 -30 -635 -50 -649 -78 -5 -9 -4 -72 1 -141 13 -165 4 -445
-16 -538 -21 -96 -82 -191 -192 -298 -123 -121 -284 -218 -430 -259 -33 -10
-97 -28 -144 -41 -192 -54 -604 -54 -975 1 -318 47 -351 53 -465 85 -144 41
-255 97 -327 165 l-56 53 5 59 c4 47 13 72 51 134 67 109 254 294 340 337 17
8 50 30 71 49 22 18 69 48 105 67 244 126 350 177 399 191 31 9 67 23 80 31
37 24 302 111 442 145 25 6 70 17 101 24 30 8 91 21 135 30 43 9 99 23 124 32
25 9 81 19 125 24 44 4 105 15 135 23 30 9 91 16 135 16 117 0 119 2 116 135
-1 59 -7 118 -12 132 -5 13 -9 48 -9 77 0 36 -5 58 -16 67 -12 10 -116 13
-467 17 -427 4 -453 5 -472 23 -18 17 -20 43 -32 306 -25 571 -27 634 -38
1172 l-6 303 53 52 c129 125 235 217 256 223 13 3 28 1 34 -5 8 -8 10 -205 7
-669 -6 -1019 -6 -1027 10 -1047 13 -15 31 -17 125 -16 150 2 424 -6 473 -14
48 -9 64 6 62 55 -5 117 12 928 21 1039 6 74 25 200 41 280 16 80 34 170 39
201 6 30 19 82 30 115 12 32 25 79 31 104 17 76 91 207 158 279 35 37 36 41
19 64 -9 11 -40 20 -93 26 -44 6 -109 15 -145 21 -36 6 -101 15 -145 20 -224
28 -552 114 -717 189 -24 10 -60 26 -81 35 -71 29 -271 149 -352 210 -44 34
-118 99 -166 146 -265 263 -351 476 -320 793 29 302 189 582 471 827 169 147
396 272 570 315 30 7 105 14 166 14 93 1 122 -3 184 -24z m976 -1512 c18 -24
17 -56 -1 -100 -13 -31 -17 -34 -31 -22 -11 9 -14 22 -9 48 17 101 18 103 41
74z m-461 -380 c59 -13 75 -20 73 -32 -3 -13 -17 -16 -70 -16 -56 0 -71 4 -89
21 -20 21 -19 44 1 44 5 0 43 -7 85 -17z" />
		<path d="M5497 6649 c-78 -21 -133 -158 -173 -429 -54 -371 -78 -784 -72
-1302 2 -286 6 -348 18 -363 13 -16 27 -17 142 -11 115 7 132 10 182 37 97 52
185 170 247 329 23 58 45 130 50 160 5 30 16 82 24 115 24 102 31 500 11 685
-44 409 -92 590 -186 687 -65 68 -176 110 -243 92z" />
		<path d="M4960 3603 c-14 -2 -108 -18 -210 -34 -102 -16 -246 -43 -320 -59
-74 -16 -202 -43 -285 -61 -82 -17 -193 -43 -245 -56 -52 -14 -127 -33 -165
-43 -450 -116 -787 -314 -852 -498 -12 -35 -20 -69 -17 -77 7 -18 76 -58 145
-84 141 -54 595 -113 1009 -132 454 -20 657 3 840 95 94 47 120 76 146 160 26
87 45 335 42 555 -2 182 -4 207 -20 223 -18 18 -22 19 -68 11z" />
	</g>
</svg>